<svg width="512" height="512" viewBox="0 0 512 512" fill="none" xmlns="http://www.w3.org/2000/svg">
<g clip-path="url(#clip0_2021_8)">
<path fill-rule="evenodd" clip-rule="evenodd" d="M30.251 29.545C15.114 33.621 4.21902 44.932 1.10902 59.799C-0.363982 66.84 -0.459982 323.302 1.00802 331.04C3.50802 344.223 11.081 353.733 24 359.913L31.5 363.5H117.338H203.176L205.088 361.139C207.368 358.324 207.51 354.26 205.426 351.5C203.941 349.534 202.445 349.491 118.707 349L33.5 348.5L28.772 346.171C23.531 343.59 18.407 337.793 16.4 332.175C15.342 329.213 15.084 302.693 15.066 195.5C15.045 68.896 15.132 62.308 16.867 58.5C19.655 52.385 23.903 47.954 29.459 45.367L34.5 43.02H256H477.5L482.5 45.383C488.509 48.224 492.184 51.957 494.919 58C496.935 62.453 496.956 63.869 496.978 193.703C496.994 289.596 497.306 325.578 498.138 327.403C500.317 332.186 506.501 332.499 510.949 328.051C512.996 326.004 513 325.764 513 193.941C513 106.156 512.665 62.089 512 62.5C511.424 62.856 511 61.927 510.999 60.309C510.998 56.279 505.941 46.257 501.24 40.966C499.024 38.473 494.992 35.225 492.281 33.749C481.025 27.623 496.453 27.994 255.54 28.066C69.224 28.122 34.695 28.348 30.251 29.545ZM0.486018 195.5C0.486018 268.65 0.605018 298.427 0.750018 261.672C0.895018 224.917 0.895018 165.067 0.750018 128.672C0.604018 92.277 0.486018 122.35 0.486018 195.5ZM76.5 100.64C67.497 102.846 62.378 106.514 58.691 113.405C56.627 117.263 56.5 118.773 56.5 139.5C56.5 160.852 56.572 161.641 58.941 166.277C60.283 168.904 62.871 172.189 64.691 173.578C71.821 179.016 72.723 179.132 105.512 178.804L135.832 178.5L140.138 175.472C142.506 173.807 145.807 170.507 147.472 168.139L150.5 163.834L150.817 141.546C151.077 123.358 150.856 118.591 149.619 115.63C147.179 109.79 143.393 105.555 138.277 102.941C133.584 100.543 133.016 100.497 106 100.325C90.875 100.229 77.6 100.371 76.5 100.64ZM362.357 101.003C351.473 102.596 341.458 109.129 335.407 118.582C322.45 138.823 330.096 165.013 352 175.413L358.5 178.5L389 178.829C409.855 179.054 421.239 178.784 425 177.977C444.529 173.784 458.245 153.671 455.061 133.899C452.307 116.798 438.817 103.411 421.869 100.961C414.385 99.879 369.819 99.91 362.357 101.003ZM76.357 115.992C72.814 117.421 71 121.015 71 126.602V131.76L77.111 132.202C82.106 132.563 83.564 133.087 85.089 135.072C87.53 138.248 87.48 141.12 84.927 144.365C83.105 146.682 82.14 147 76.927 147H71V152.277C71 157.256 72.633 161.284 75.442 163.235C76.024 163.639 80.888 163.976 86.25 163.985L96 164V139.5V115L87.25 115.063C82.438 115.098 77.536 115.516 76.357 115.992ZM111 139.406V164H121.045C130.378 164 131.265 163.826 133.545 161.545C135.61 159.481 136 158.131 136 153.045V147H130.611C123.884 147 120.667 144.768 120.667 140.1C120.667 135.275 123.776 132.766 130.441 132.213L136 131.752V126.05C136 121.216 135.608 119.98 133.422 117.924C131.117 115.757 129.791 115.464 120.922 115.156L111 114.813V139.406ZM360.173 116.905C357.092 117.969 353.195 120.357 350.931 122.567C339.931 133.308 342.19 152.274 355.445 160.474L360.338 163.5L390.419 163.812C409.281 164.008 421.822 163.736 424.045 163.084C428.799 161.687 435.58 155.732 438.21 150.643C441.38 144.508 441.284 134.972 437.987 128.564C435.217 123.18 428.371 117.753 422.182 116.034C420.086 115.452 407.081 115.023 392 115.038C368.912 115.062 364.814 115.302 360.173 116.905ZM58.405 231.105C56.779 232.901 56.5 234.793 56.5 244C56.5 256.314 57.744 259.013 63.405 258.985C69.503 258.955 71 256.001 71 244C71 235.328 70.064 231.411 67.6 229.765C65.357 228.267 60.307 229.003 58.405 231.105ZM82.405 231.103C80.86 232.807 80.446 235.03 80.217 242.853C79.902 253.611 80.944 256.905 85.131 258.377C88.827 259.677 92.468 258.463 93.829 255.477C95.336 252.168 95.352 235.537 93.85 232.684C92.3 229.74 91.06 229.033 87.405 229.015C85.515 229.006 83.568 229.819 82.405 231.103ZM106.405 231.105C104.775 232.906 104.5 234.796 104.5 244.193C104.5 254.53 104.639 255.289 106.861 257.088C110.021 259.647 114.432 259.526 116.961 256.811C118.752 254.889 119 253.309 119 243.811C119 234.333 118.753 232.753 117 231C114.305 228.305 108.891 228.358 106.405 231.105ZM130.861 230.912C128.635 232.714 128.5 233.46 128.5 244C128.5 254.54 128.635 255.286 130.861 257.088C133.921 259.567 138.473 259.527 141 257C142.758 255.242 143 253.667 143 244C143 234.333 142.758 232.758 141 231C138.473 228.473 133.921 228.433 130.861 230.912ZM162.861 230.912C160.635 232.714 160.5 233.46 160.5 244C160.5 254.54 160.635 255.286 162.861 257.088C165.921 259.567 170.473 259.527 173 257C174.758 255.242 175 253.667 175 244C175 234.333 174.758 232.758 173 231C170.473 228.473 165.921 228.433 162.861 230.912ZM187.736 230.25C185.182 232.19 184 236.512 184 243.916C184 251.699 185.407 256.612 188.039 258.021C190.98 259.595 194.845 259.155 197 257C198.758 255.242 199 253.667 199 244C199 234.333 198.758 232.758 197 231C194.743 228.743 190.204 228.376 187.736 230.25ZM211 231C209.242 232.758 209 234.333 209 244C209 256.383 210.221 259 216 259C221.779 259 223 256.383 223 244C223 231.617 221.779 229 216 229C214.333 229 212.111 229.889 211 231ZM235 231C233.242 232.758 233 234.333 233 244C233 256.383 234.221 259 240 259C245.779 259 247 256.383 247 244C247 231.617 245.779 229 240 229C238.333 229 236.111 229.889 235 231ZM59.153 294.75C55.774 297.61 55.472 301.274 58.34 304.609L60.826 307.5L132.663 307.795C172.173 307.957 205.988 307.819 207.806 307.489C214.439 306.284 217.331 299.331 213 295C211.036 293.036 209.667 293 136.111 293C66.242 293 61.083 293.117 59.153 294.75Z" fill="#404040"/>
<path fill-rule="evenodd" clip-rule="evenodd" d="M329.597 230.553C311.849 233.879 290.626 243.185 276.125 254.001C270.145 258.167 255.917 270.1 246.843 284.5C236.645 299.974 229.379 318.047 226.363 335.442C224.169 348.093 224.953 373.188 227.911 385C236.033 417.427 255.011 444.555 282.24 462.659C303.014 476.471 325.764 483.258 351.5 483.32C387.518 483.408 416.67 471.402 442.036 446.036C467.402 420.67 479.408 391.518 479.32 355.5C479.258 329.764 472.471 307.014 458.659 286.24C440.558 259.015 413.487 240.073 381 231.902C369.74 229.07 341.469 228.328 329.597 230.553ZM267.581 281.997C287.825 259.309 312.521 246.716 342 244.049C350.262 243.302 352.335 243.338 366 244.469C380.44 245.665 398.839 252.27 412.696 261.235C440.601 279.286 458.551 307.203 463.661 340.5C467.887 368.031 459.809 400.326 443.038 422.949C436.956 431.152 423.454 444.227 416 449.131C380.508 472.479 337.354 475.111 300.519 456.176C266.231 438.55 243.027 403.873 240.083 365.86C237.608 333.911 247.107 304.944 267.581 281.997ZM291 295C289.822 296.178 289 298.333 289 300.243C289 303.151 291.71 306.197 315.225 329.726L341.451 355.965L315.225 382.311C290.893 406.756 289 408.912 289 412.174C289 416.489 291.816 419.333 296.089 419.333C298.763 419.333 302.516 415.972 325.576 392.924L352 366.514L377.75 392.152C391.912 406.252 404.521 418.307 405.769 418.94C408.762 420.458 412.996 418.496 414.786 414.76C415.791 412.663 415.827 411.517 414.94 409.769C414.307 408.521 402.252 395.912 388.152 381.75L362.514 356L388.924 329.576C411.972 306.516 415.333 302.763 415.333 300.089C415.333 295.816 412.489 293 408.174 293C404.912 293 402.756 294.893 378.311 319.225L351.965 345.451L325.726 319.225C302.197 295.71 299.151 293 296.243 293C294.333 293 292.178 293.822 291 295Z" fill="#E7000B"/>
</g>
<defs>
<clipPath id="clip0_2021_8">
<rect width="512" height="512" fill="white"/>
</clipPath>
</defs>
</svg>
